# Aspose.3D Wavefront OBJ Exporter
# Copyright 2004-2024 Aspose Pty Ltd.
# File created: 10/03/2024 20:46:20

mtllib material.lib
g Object_4

#
# object Object_4
#

v -0.5 -0.5 0.5
v -0.5 -0.5 0.5
v -0.5 -0.5 0.5
v -0.5 0.5 0.5
v -0.5 0.5 0.5
v -0.5 0.5 0.5
v -0.5 -0.5 -0.5
v -0.5 -0.5 -0.5
v -0.5 -0.5 -0.5
v -0.5 0.5 -0.5
v -0.5 0.5 -0.5
v -0.5 0.5 -0.5
v 0.5 -0.5 0.5
v 0.5 -0.5 0.5
v 0.5 -0.5 0.5
v 0.5 0.5 0.5
v 0.5 0.5 0.5
v 0.5 0.5 0.5
v 0.5 -0.5 -0.5
v 0.5 -0.5 -0.5
v 0.5 -0.5 -0.5
v 0.5 0.5 -0.5
v 0.5 0.5 -0.5
v 0.5 0.5 -0.5
# 24 vertices

vn -1 0 0
vn 0 -1 0
vn 0 0 1
vn -1 0 0
vn 0 0 1
vn 0 1 0
vn -1 0 0
vn 0 -1 0
vn 0 0 -1
vn -1 0 0
vn 0 0 -1
vn 0 1 0
vn 0 -1 0
vn 0 0 1
vn 1 0 0
vn 0 0 1
vn 0 1 0
vn 1 0 0
vn 0 -1 0
vn 0 0 -1
vn 1 0 0
vn 0 0 -1
vn 0 1 0
vn 1 0 0
# 24 vertex normals

vt 0.375 -0 0
vt 0.125 -0.75 0
vt 0.375 -1 0
vt 0.625 -0 0
vt 0.625 -1 0
vt 0.875 -0.75 0
vt 0.375 -0.25 0
vt 0.125 -0.5 0
vt 0.375 -0.25 0
vt 0.625 -0.25 0
vt 0.625 -0.25 0
vt 0.875 -0.5 0
vt 0.375 -0.75 0
vt 0.375 -0.75 0
vt 0.375 -0.75 0
vt 0.625 -0.75 0
vt 0.625 -0.75 0
vt 0.625 -0.75 0
vt 0.375 -0.5 0
vt 0.375 -0.5 0
vt 0.375 -0.5 0
vt 0.625 -0.5 0
vt 0.625 -0.5 0
vt 0.625 -0.5 0
# 24 texture coords

usemtl Scene_-_Root
s 1
f 1/1/1 4/4/4 10/10/10
f 1/1/1 10/10/10 7/7/7
f 9/9/9 11/11/11 22/22/22
f 9/9/9 22/22/22 20/20/20
f 21/21/21 24/24/24 18/18/18
f 21/21/21 18/18/18 15/15/15
f 14/14/14 16/16/16 5/5/5
f 14/14/14 5/5/5 3/3/3
f 8/8/8 19/19/19 13/13/13
f 8/8/8 13/13/13 2/2/2
f 23/23/23 12/12/12 6/6/6
f 23/23/23 6/6/6 17/17/17
#12 polygons

